
	<svg version="1.1" xmlns="http://www.w3.org/2000/svg" viewBox="-2000 -2000 5000 5000">
	
	<g>
		<polygon 
			points="543,625.769145 183,625.769145 3,314 183,2.230855 543,2.230855 723,314" 
			x="0"
			y="0"
			fill="white" 
			stroke="black" 
			stroke-width="1"/>
		<!-- <text font-size="200" x="363" y="265.769145">0</text> -->
	</g>
	
	
	<g>
		<polygon 
			points="1173,982.5382903623979 813,982.5382903623979 633,670.7691453623979 813,359.00000036239794 1173,359.00000036239794 1353,670.7691453623979" 
			x="630"
			y="356.7691453623979"
			fill="white" 
			stroke="black" 
			stroke-width="1"/>
		<!-- <text font-size="200" x="993" y="622.5382903623979">1</text> -->
	</g>
	
	
	<g>
		<polygon 
			points="1173,268.99999963760206 813,268.99999963760206 633,-42.76914536239792 813,-354.5382903623979 1173,-354.5382903623979 1353,-42.76914536239792" 
			x="630"
			y="-356.7691453623979"
			fill="white" 
			stroke="black" 
			stroke-width="1"/>
		<!-- <text font-size="200" x="993" y="-91.00000036239794">2</text> -->
	</g>
	
	
	<g>
		<polygon 
			points="1173,-444.5382910871938 813,-444.5382910871938 633,-756.3074360871938 813,-1068.0765810871937 1173,-1068.0765810871937 1353,-756.3074360871938" 
			x="630"
			y="-1070.3074360871938"
			fill="white" 
			stroke="black" 
			stroke-width="1"/>
		<!-- <text font-size="200" x="993" y="-804.5382910871938">3</text> -->
	</g>
	
	
	<g>
		<polygon 
			points="-87,-444.5382910871938 -447,-444.5382910871938 -627,-756.3074360871938 -447,-1068.0765810871937 -87,-1068.0765810871937 93,-756.3074360871938" 
			x="-630"
			y="-1070.3074360871938"
			fill="white" 
			stroke="black" 
			stroke-width="1"/>
		<!-- <text font-size="200" x="-267" y="-804.5382910871938">4</text> -->
	</g>
	
	
	<g>
		<polygon 
			points="1173,1696.0765810871937 813,1696.0765810871937 633,1384.3074360871938 813,1072.5382910871938 1173,1072.5382910871938 1353,1384.3074360871938" 
			x="630"
			y="1070.3074360871938"
			fill="white" 
			stroke="black" 
			stroke-width="1"/>
		<!-- <text font-size="200" x="993" y="1336.0765810871937">5</text> -->
	</g>
	
	
	<g>
		<polygon 
			points="-87,982.5382903623979 -447,982.5382903623979 -627,670.7691453623979 -447,359.00000036239794 -87,359.00000036239794 93,670.7691453623979" 
			x="-630"
			y="356.7691453623979"
			fill="white" 
			stroke="black" 
			stroke-width="1"/>
		<!-- <text font-size="200" x="-267" y="622.5382903623979">6</text> -->
	</g>
	
	
	<g>
		<polygon 
			points="-87,1696.0765810871937 -447,1696.0765810871937 -627,1384.3074360871938 -447,1072.5382910871938 -87,1072.5382910871938 93,1384.3074360871938" 
			x="-630"
			y="1070.3074360871938"
			fill="white" 
			stroke="black" 
			stroke-width="1"/>
		<!-- <text font-size="200" x="-267" y="1336.0765810871937">7</text> -->
	</g>
	
	
	<g>
		<polygon 
			points="-87,268.99999963760206 -447,268.99999963760206 -627,-42.76914536239792 -447,-354.5382903623979 -87,-354.5382903623979 93,-42.76914536239792" 
			x="-630"
			y="-356.7691453623979"
			fill="white" 
			stroke="black" 
			stroke-width="1"/>
		<!-- <text font-size="200" x="-267" y="-91.00000036239794">8</text> -->
	</g>
	
	
	<g>
		<polygon 
			points="-717,625.769145 -1077,625.769145 -1257,314 -1077,2.230855 -717,2.230855 -537,314" 
			x="-1260"
			y="0"
			fill="white" 
			stroke="black" 
			stroke-width="1"/>
		<!-- <text font-size="200" x="-897" y="265.769145">9</text> -->
	</g>
	
	
	<g>
		<polygon 
			points="1803,625.769145 1443,625.769145 1263,314 1443,2.230855 1803,2.230855 1983,314" 
			x="1260"
			y="0"
			fill="white" 
			stroke="black" 
			stroke-width="1"/>
		<!-- <text font-size="200" x="1623" y="265.769145">10</text> -->
	</g>
	
	
	<g>
		<polygon 
			points="-717,1339.3074357247958 -1077,1339.3074357247958 -1257,1027.5382907247958 -1077,715.7691457247959 -717,715.7691457247959 -537,1027.5382907247958" 
			x="-1260"
			y="713.5382907247958"
			fill="white" 
			stroke="black" 
			stroke-width="1"/>
		<!-- <text font-size="200" x="-897" y="979.3074357247958">11</text> -->
	</g>
	
	
	<g>
		<polygon 
			points="1803,1339.3074357247958 1443,1339.3074357247958 1263,1027.5382907247958 1443,715.7691457247959 1803,715.7691457247959 1983,1027.5382907247958" 
			x="1260"
			y="713.5382907247958"
			fill="white" 
			stroke="black" 
			stroke-width="1"/>
		<!-- <text font-size="200" x="1623" y="979.3074357247958">12</text> -->
	</g>
	
	
	<g>
		<polygon 
			points="-717,-87.76914572479586 -1077,-87.76914572479586 -1257,-399.53829072479584 -1077,-711.3074357247958 -717,-711.3074357247958 -537,-399.53829072479584" 
			x="-1260"
			y="-713.5382907247958"
			fill="white" 
			stroke="black" 
			stroke-width="1"/>
		<!-- <text font-size="200" x="-897" y="-447.76914572479586">13</text> -->
	</g>
	
	
	<g>
		<polygon 
			points="1803,-87.76914572479586 1443,-87.76914572479586 1263,-399.53829072479584 1443,-711.3074357247958 1803,-711.3074357247958 1983,-399.53829072479584" 
			x="1260"
			y="-713.5382907247958"
			fill="white" 
			stroke="black" 
			stroke-width="1"/>
		<!-- <text font-size="200" x="1623" y="-447.76914572479586">14</text> -->
	</g>
	
	
	<g>
		<polygon 
			points="543,-87.76914572479586 183,-87.76914572479586 3,-399.53829072479584 183,-711.3074357247958 543,-711.3074357247958 723,-399.53829072479584" 
			x="0"
			y="-713.5382907247958"
			fill="white" 
			stroke="black" 
			stroke-width="1"/>
		<!-- <text font-size="200" x="363" y="-447.76914572479586">15</text> -->
	</g>
	
	
	<g>
		<polygon 
			points="543,1339.3074357247958 183,1339.3074357247958 3,1027.5382907247958 183,715.7691457247959 543,715.7691457247959 723,1027.5382907247958" 
			x="0"
			y="713.5382907247958"
			fill="white" 
			stroke="black" 
			stroke-width="1"/>
		<!-- <text font-size="200" x="363" y="979.3074357247958">16</text> -->
	</g>
	
	
	<g>
		<polygon 
			points="543,-801.3074364495917 183,-801.3074364495917 3,-1113.0765814495917 183,-1424.8457264495917 543,-1424.8457264495917 723,-1113.0765814495917" 
			x="0"
			y="-1427.0765814495917"
			fill="white" 
			stroke="black" 
			stroke-width="1"/>
		<!-- <text font-size="200" x="363" y="-1161.3074364495917">17</text> -->
	</g>
	
	
	<g>
		<polygon 
			points="543,2052.845726449592 183,2052.845726449592 3,1741.0765814495917 183,1429.3074364495917 543,1429.3074364495917 723,1741.0765814495917" 
			x="0"
			y="1427.0765814495917"
			fill="white" 
			stroke="black" 
			stroke-width="1"/>
		<!-- <text font-size="200" x="363" y="1692.845726449592">18</text> -->
	</g>
	
	</svg>
	